<svg xmlns="http://www.w3.org/2000/svg" fill="none" viewBox="0 0 96 96" id="Cloudinary-Icon--Streamline-Svg-Logos">
  <desc>
    Cloudinary Icon Streamline Icon: https://streamlinehq.com
  </desc>
  <path fill="#3448c5" d="M28.5609 44.8523c0.0688 0 0.1347 0.0276 0.183 0.0766l8.6509 8.6587c0.0714 0.0733 0.0924 0.1821 0.0535 0.2767 -0.0389 0.0947 -0.1302 0.1573 -0.2326 0.1593h-2.2114c-0.1432 0 -0.2605 0.1138 -0.2647 0.257V73.747c0.0031 1.2322 0.4929 2.4132 1.3627 3.286l1.2925 1.2926c0.0714 0.0733 0.0924 0.1821 0.0535 0.2767 -0.0389 0.0947 -0.1302 0.1573 -0.2326 0.1593H27.0153c-2.5802 0 -4.6719 -2.0917 -4.6719 -4.6719V54.2806c0 -0.1419 -0.1151 -0.257 -0.257 -0.257h-2.1802c-0.1038 0.0011 -0.198 -0.0603 -0.2388 -0.1557 -0.0409 -0.0954 -0.0204 -0.2059 0.0519 -0.2803l8.6587 -8.6587c0.0483 -0.049 0.1142 -0.0766 0.1829 -0.0766Zm19.1317 5.0146c0.0688 0 0.1347 0.0276 0.183 0.0766l8.6587 8.6275c0.0723 0.0744 0.0928 0.185 0.0519 0.2803 -0.0409 0.0954 -0.1351 0.1568 -0.2388 0.1557H54.136c-0.1432 0.0043 -0.257 0.1216 -0.257 0.2648V73.747c0.0011 1.2311 0.488 2.412 1.3549 3.286l1.3004 1.2926c0.0723 0.0743 0.0928 0.1849 0.0519 0.2803 -0.0409 0.0953 -0.1351 0.1568 -0.2388 0.1557H46.1703c-2.5802 0 -4.6719 -2.0917 -4.6719 -4.6719V59.2874c0 -0.1433 -0.1138 -0.2606 -0.257 -0.2648h-2.2036c-0.1023 -0.002 -0.1937 -0.0646 -0.2326 -0.1593 -0.0388 -0.0946 -0.0178 -0.2034 0.0535 -0.2767l8.6509 -8.6431c0.0483 -0.049 0.1142 -0.0766 0.183 -0.0766Zm19.1355 4.9607c0.0675 0 0.1322 0.0274 0.1791 0.0759l8.6587 8.6509c0.0769 0.0726 0.1015 0.1849 0.062 0.283 -0.0396 0.0982 -0.1353 0.162 -0.2411 0.1608h-2.2192c-0.1419 0 -0.2569 0.1151 -0.2569 0.257v9.4918c0.0031 1.2322 0.4929 2.4132 1.3626 3.286l1.2926 1.2926c0.0714 0.0733 0.0924 0.1821 0.0535 0.2767 -0.0389 0.0947 -0.1303 0.1573 -0.2326 0.1593H65.2786c-2.5802 0 -4.672 -2.0917 -4.672 -4.6719v-9.8345c0 -0.1419 -0.115 -0.257 -0.2569 -0.257h-2.1803c-0.1057 0.0012 -0.2014 -0.0626 -0.241 -0.1608 -0.0396 -0.0981 -0.015 -0.2104 0.062 -0.283l8.6586 -8.6509c0.047 -0.0485 0.1116 -0.0759 0.1791 -0.0759ZM47.5174 17.2388c13.6008 0.099 25.5966 8.9309 29.7292 21.8891C87.3473 40.4461 94.9262 49.0156 95 59.2017c0 8.407 -5.2577 15.3931 -13.7467 18.3016l-0.3159 0.1059 -0.3893 0.1246v-6.276c5.3961 -2.2737 8.5652 -6.7666 8.5652 -12.2561 -0.0276 -7.7463 -6.1623 -14.0715 -13.8721 -14.3664l-0.2605 -0.0076h-2.336l-0.5606 -2.227c-2.7515 -11.3575 -12.8809 -19.384 -24.5667 -19.4665 -9.6153 -0.0461 -18.3961 5.4176 -22.6099 14.0378l-0.8667 1.7846 -1.6351 0.1713c-7.3851 0.79 -13.44905 6.1916 -15.08428 13.4365 -1.61186 7.1415 1.43151 14.5138 7.58118 18.4444l0.2693 0.1687v6.6186h-0.0389l-0.584 -0.2648C5.31253 73.2851 -0.0977656 63.5339 1.18771 53.4498 2.47319 43.3657 10.1568 35.2836 20.1631 33.4904c5.4061 -10.0637 15.9307 -16.3161 27.3543 -16.2516Z" stroke-width="1"></path>
</svg>