<svg width="31" height="18" viewBox="0 0 31 18" fill="none" xmlns="http://www.w3.org/2000/svg">
<path d="M5.202 7.545C5.04 7.233 4.815 6.999 4.527 6.843C4.239 6.681 3.906 6.6 3.528 6.6C3.114 6.6 2.745 6.693 2.421 6.879C2.097 7.065 1.842 7.329 1.656 7.671C1.476 8.013 1.386 8.409 1.386 8.859C1.386 9.309 1.476 9.708 1.656 10.056C1.842 10.398 2.097 10.662 2.421 10.848C2.745 11.034 3.114 11.127 3.528 11.127C4.086 11.127 4.539 10.971 4.887 10.659C5.235 10.347 5.448 9.924 5.526 9.39H3.177V8.571H6.624V9.372C6.558 9.858 6.384 10.305 6.102 10.713C5.826 11.121 5.463 11.448 5.013 11.694C4.569 11.934 4.074 12.054 3.528 12.054C2.94 12.054 2.403 11.919 1.917 11.649C1.431 11.373 1.044 10.992 0.756 10.506C0.474 10.02 0.333 9.471 0.333 8.859C0.333 8.247 0.474 7.698 0.756 7.212C1.044 6.726 1.431 6.348 1.917 6.078C2.409 5.802 2.946 5.664 3.528 5.664C4.194 5.664 4.785 5.829 5.301 6.159C5.823 6.483 6.201 6.945 6.435 7.545H5.202ZM8.15794 6.384C7.97194 6.384 7.81594 6.321 7.68994 6.195C7.56394 6.069 7.50094 5.913 7.50094 5.727C7.50094 5.541 7.56394 5.385 7.68994 5.259C7.81594 5.133 7.97194 5.07 8.15794 5.07C8.33794 5.07 8.49094 5.133 8.61694 5.259C8.74294 5.385 8.80594 5.541 8.80594 5.727C8.80594 5.913 8.74294 6.069 8.61694 6.195C8.49094 6.321 8.33794 6.384 8.15794 6.384ZM8.66194 7.041V12H7.63594V7.041H8.66194ZM11.206 7.878V10.623C11.206 10.809 11.248 10.944 11.332 11.028C11.422 11.106 11.572 11.145 11.782 11.145H12.412V12H11.602C11.14 12 10.786 11.892 10.54 11.676C10.294 11.46 10.171 11.109 10.171 10.623V7.878H9.58598V7.041H10.171V5.808H11.206V7.041H12.412V7.878H11.206ZM18.3526 5.745V12H17.3266V9.264H14.3836V12H13.3576V5.745H14.3836V8.427H17.3266V5.745H18.3526ZM24.1943 7.041V12H23.1683V11.415C23.0063 11.619 22.7933 11.781 22.5293 11.901C22.2713 12.015 21.9953 12.072 21.7013 12.072C21.3113 12.072 20.9603 11.991 20.6483 11.829C20.3423 11.667 20.0993 11.427 19.9193 11.109C19.7453 10.791 19.6583 10.407 19.6583 9.957V7.041H20.6753V9.804C20.6753 10.248 20.7863 10.59 21.0083 10.83C21.2303 11.064 21.5333 11.181 21.9173 11.181C22.3013 11.181 22.6043 11.064 22.8263 10.83C23.0543 10.59 23.1683 10.248 23.1683 9.804V7.041H24.1943ZM26.574 7.779C26.748 7.539 26.985 7.344 27.285 7.194C27.591 7.038 27.93 6.96 28.302 6.96C28.74 6.96 29.136 7.065 29.49 7.275C29.844 7.485 30.123 7.785 30.327 8.175C30.531 8.559 30.633 9 30.633 9.498C30.633 9.996 30.531 10.443 30.327 10.839C30.123 11.229 29.841 11.535 29.481 11.757C29.127 11.973 28.734 12.081 28.302 12.081C27.918 12.081 27.576 12.006 27.276 11.856C26.982 11.706 26.748 11.514 26.574 11.28V12H25.548V5.34H26.574V7.779ZM29.589 9.498C29.589 9.156 29.517 8.862 29.373 8.616C29.235 8.364 29.049 8.175 28.815 8.049C28.587 7.917 28.341 7.851 28.077 7.851C27.819 7.851 27.573 7.917 27.339 8.049C27.111 8.181 26.925 8.373 26.781 8.625C26.643 8.877 26.574 9.174 26.574 9.516C26.574 9.858 26.643 10.158 26.781 10.416C26.925 10.668 27.111 10.86 27.339 10.992C27.573 11.124 27.819 11.19 28.077 11.19C28.341 11.19 28.587 11.124 28.815 10.992C29.049 10.854 29.235 10.656 29.373 10.398C29.517 10.14 29.589 9.84 29.589 9.498Z" fill="white"/>
</svg>
