<svg width="94" height="19" viewBox="0 0 94 19" fill="none" xmlns="http://www.w3.org/2000/svg">
<path d="M10.5703 5.13068C10.4794 4.32386 10.1044 3.69886 9.44531 3.25568C8.78622 2.80682 7.95668 2.58239 6.95668 2.58239C6.24077 2.58239 5.62145 2.69602 5.09872 2.92329C4.57599 3.14489 4.16974 3.4517 3.87997 3.84375C3.59588 4.23011 3.45384 4.67045 3.45384 5.16477C3.45384 5.57955 3.55043 5.9375 3.74361 6.23864C3.94247 6.53977 4.20099 6.79261 4.51918 6.99716C4.84304 7.19602 5.18963 7.36364 5.55895 7.5C5.92827 7.63068 6.28338 7.73864 6.62429 7.82386L8.32884 8.26705C8.88565 8.40341 9.45668 8.58807 10.0419 8.82102C10.6271 9.05398 11.1697 9.3608 11.6697 9.74148C12.1697 10.1222 12.5732 10.5938 12.88 11.1562C13.1925 11.7188 13.3487 12.392 13.3487 13.1761C13.3487 14.1648 13.093 15.0426 12.5817 15.8097C12.076 16.5767 11.3402 17.1818 10.3743 17.625C9.41406 18.0682 8.25213 18.2898 6.88849 18.2898C5.58168 18.2898 4.45099 18.0824 3.49645 17.6676C2.5419 17.2528 1.79474 16.6648 1.25497 15.9034C0.715199 15.1364 0.416903 14.2273 0.360085 13.1761H3.00213C3.05327 13.8068 3.25781 14.3324 3.61577 14.7528C3.9794 15.1676 4.44247 15.4773 5.00497 15.6818C5.57315 15.8807 6.19531 15.9801 6.87145 15.9801C7.61577 15.9801 8.2777 15.8636 8.85724 15.6307C9.44247 15.392 9.9027 15.0625 10.2379 14.642C10.5732 14.2159 10.7408 13.7187 10.7408 13.1506C10.7408 12.6335 10.593 12.2102 10.2976 11.8807C10.0078 11.5511 9.61293 11.2784 9.11293 11.0625C8.61861 10.8466 8.05895 10.6562 7.43395 10.4915L5.37145 9.92898C3.97372 9.5483 2.86577 8.98864 2.04759 8.25C1.23509 7.51136 0.828835 6.53409 0.828835 5.31818C0.828835 4.3125 1.10156 3.43466 1.64702 2.68466C2.19247 1.93466 2.93111 1.35227 3.86293 0.9375C4.79474 0.517045 5.84588 0.306818 7.01634 0.306818C8.19815 0.306818 9.24077 0.514204 10.1442 0.928977C11.0533 1.34375 11.7692 1.91477 12.2919 2.64204C12.8146 3.36364 13.0874 4.19318 13.1101 5.13068H10.5703ZM16.4957 18V0.545454H27.4389V2.8125H19.1293V8.13068H26.8679V10.3892H19.1293V15.733H27.5412V18H16.4957ZM45.0447 0.545454V18H42.6243L33.7521 5.19886H33.5902V18H30.9567V0.545454H33.3942L42.2749 13.3636H42.4368V0.545454H45.0447ZM48.0256 2.8125V0.545454H61.5341V2.8125H56.0881V18H53.4631V2.8125H48.0256ZM64.5192 18V0.545454H70.7408C72.093 0.545454 73.2152 0.778409 74.1072 1.24432C75.005 1.71023 75.6754 2.35511 76.1186 3.17898C76.5618 3.99716 76.7834 4.94318 76.7834 6.01705C76.7834 7.08523 76.5589 8.02557 76.1101 8.83807C75.6669 9.64489 74.9964 10.2727 74.0987 10.7216C73.2067 11.1705 72.0845 11.3949 70.7322 11.3949H66.0192V9.12784H70.4936C71.3459 9.12784 72.0391 9.00568 72.5732 8.76136C73.1129 8.51705 73.5078 8.16193 73.7578 7.69602C74.0078 7.23011 74.1328 6.67045 74.1328 6.01705C74.1328 5.35795 74.005 4.78693 73.7493 4.30398C73.4993 3.82102 73.1044 3.4517 72.5646 3.19602C72.0305 2.93466 71.3288 2.80398 70.4595 2.80398H67.1527V18H64.5192ZM73.1357 10.125L77.4482 18H74.4482L70.2209 10.125H73.1357ZM78.0085 0.545454H81L85.5597 8.48011H85.7472L90.3068 0.545454H93.2983L86.9659 11.1477V18H84.3409V11.1477L78.0085 0.545454Z" fill="white"/>
</svg>
