<svg xmlns="http://www.w3.org/2000/svg" fill="none" viewBox="0 0 96 96" id="Sentry-Icon--Streamline-Svg-Logos">
  <desc>
    Sentry Icon Streamline Icon: https://streamlinehq.com
  </desc>
  <path fill="#ffffff" d="M55.4787 10.812c-1.5902 -2.63924 -4.4465 -4.25292 -7.5278 -4.25292 -3.0813 0 -5.9376 1.61368 -7.5278 4.25292L28.0398 32.0217c19.2501 9.6107 31.9632 28.7054 33.4047 50.173h-8.6946c-1.4388 -18.4006 -12.5068 -34.6661 -29.0951 -42.7581l-11.4611 19.817c9.3136 4.177 15.8599 12.8084 17.3705 22.9034H9.59659c-0.48107 -0.034 -0.9126 -0.3082 -1.14778 -0.7292 -0.23518 -0.4211 -0.24234 -0.9323 -0.01904 -1.3598l5.53293 -9.4097c-1.8745 -1.5641 -4.01691 -2.7755 -6.32335 -3.5758l-5.4765 9.4098c-1.15163 1.9754 -1.463452 4.3299 -0.86572 6.5369 0.59774 2.207 2.05515 4.0824 4.04623 5.2065 1.29874 0.7318 2.76256 1.1204 4.25323 1.1292H36.9414c1.033 -12.7462 -4.6782 -25.1038 -15.0556 -32.5767l4.3473 -7.5278c13.1008 8.9979 20.4721 24.2486 19.3842 40.1045h23.1669c1.0979 -24.025 -10.6656 -46.8207 -30.883 -59.8462L46.69 14.463c0.4076 -0.683 1.2895 -0.9098 1.976 -0.5081 0.9975 0.5457 38.185 65.4356 38.8813 66.1884 0.2497 0.4478 0.2407 0.9949 -0.0237 1.4341 -0.2643 0.4393 -0.7435 0.7035 -1.256 0.6925h-8.9582c0.113 2.3964 0.113 4.7865 0 7.1705h8.9958c2.3073 0.0149 4.5247 -0.8937 6.158 -2.5235 1.6333 -1.6297 2.5467 -3.8452 2.5367 -6.1525 0.0011 -1.5088 -0.4018 -2.9904 -1.1669 -4.2909L55.4787 10.812Z" stroke-width="1"></path>
</svg>