<svg width="30" height="16" viewBox="0 0 30 16" fill="none" xmlns="http://www.w3.org/2000/svg">
<path d="M2.76 12L0.2 4.9H1.35L3.44 10.8L5.53 4.9H6.68L4.11 12H2.76ZM9.38531 12.12C8.86531 12.12 8.41531 12.0067 8.03531 11.78C7.66198 11.5533 7.37198 11.23 7.16531 10.81C6.96531 10.39 6.86531 9.9 6.86531 9.34C6.86531 8.78 6.96531 8.29333 7.16531 7.88C7.37198 7.46 7.66198 7.13667 8.03531 6.91C8.40865 6.67667 8.84865 6.56 9.35531 6.56C9.83531 6.56 10.2586 6.67333 10.6253 6.9C10.992 7.12 11.2753 7.44 11.4753 7.86C11.682 8.28 11.7853 8.78667 11.7853 9.38V9.65H7.96531C7.99198 10.17 8.12865 10.56 8.37531 10.82C8.62865 11.08 8.96865 11.21 9.39531 11.21C9.70865 11.21 9.96865 11.1367 10.1753 10.99C10.382 10.8433 10.5253 10.6467 10.6053 10.4L11.7053 10.47C11.5653 10.9633 11.2886 11.3633 10.8753 11.67C10.4686 11.97 9.97198 12.12 9.38531 12.12ZM7.96531 8.85H10.6653C10.632 8.37667 10.4953 8.02667 10.2553 7.8C10.022 7.57333 9.72198 7.46 9.35531 7.46C8.97531 7.46 8.66198 7.58 8.41531 7.82C8.17531 8.05333 8.02531 8.39667 7.96531 8.85ZM12.8594 12V6.68H13.8294L13.8694 8.09L13.7794 8.06C13.8527 7.58 13.9994 7.23 14.2194 7.01C14.446 6.79 14.7494 6.68 15.1294 6.68H15.6394V7.63H15.1294C14.8627 7.63 14.6394 7.67333 14.4594 7.76C14.2794 7.84667 14.1427 7.98 14.0494 8.16C13.9627 8.34 13.9194 8.57333 13.9194 8.86V12H12.8594ZM18.5845 12.12C18.0779 12.12 17.6345 12.0067 17.2545 11.78C16.8745 11.5533 16.5812 11.23 16.3745 10.81C16.1679 10.39 16.0645 9.9 16.0645 9.34C16.0645 8.78 16.1679 8.29333 16.3745 7.88C16.5812 7.46 16.8745 7.13667 17.2545 6.91C17.6345 6.67667 18.0779 6.56 18.5845 6.56C19.0179 6.56 19.4012 6.63667 19.7345 6.79C20.0745 6.93667 20.3479 7.15333 20.5545 7.44C20.7679 7.72667 20.9045 8.07667 20.9645 8.49L19.8545 8.55C19.8012 8.20333 19.6612 7.94 19.4345 7.76C19.2079 7.57333 18.9245 7.48 18.5845 7.48C18.1379 7.48 17.7879 7.64667 17.5345 7.98C17.2879 8.30667 17.1645 8.76 17.1645 9.34C17.1645 9.92 17.2879 10.3767 17.5345 10.71C17.7879 11.0367 18.1379 11.2 18.5845 11.2C18.9245 11.2 19.2079 11.1067 19.4345 10.92C19.6612 10.7267 19.8012 10.4367 19.8545 10.05L20.9645 10.11C20.9045 10.5167 20.7679 10.87 20.5545 11.17C20.3479 11.47 20.0745 11.7033 19.7345 11.87C19.4012 12.0367 19.0179 12.12 18.5845 12.12ZM24.1216 12.12C23.6016 12.12 23.1516 12.0067 22.7716 11.78C22.3983 11.5533 22.1083 11.23 21.9016 10.81C21.7016 10.39 21.6016 9.9 21.6016 9.34C21.6016 8.78 21.7016 8.29333 21.9016 7.88C22.1083 7.46 22.3983 7.13667 22.7716 6.91C23.145 6.67667 23.585 6.56 24.0916 6.56C24.5716 6.56 24.995 6.67333 25.3616 6.9C25.7283 7.12 26.0116 7.44 26.2116 7.86C26.4183 8.28 26.5216 8.78667 26.5216 9.38V9.65H22.7016C22.7283 10.17 22.865 10.56 23.1116 10.82C23.365 11.08 23.705 11.21 24.1316 11.21C24.445 11.21 24.705 11.1367 24.9116 10.99C25.1183 10.8433 25.2616 10.6467 25.3416 10.4L26.4416 10.47C26.3016 10.9633 26.025 11.3633 25.6116 11.67C25.205 11.97 24.7083 12.12 24.1216 12.12ZM22.7016 8.85H25.4016C25.3683 8.37667 25.2316 8.02667 24.9916 7.8C24.7583 7.57333 24.4583 7.46 24.0916 7.46C23.7116 7.46 23.3983 7.58 23.1516 7.82C22.9116 8.05333 22.7616 8.39667 22.7016 8.85ZM28.8045 12C28.4579 12 28.1779 11.91 27.9645 11.73C27.7512 11.55 27.6445 11.2633 27.6445 10.87V4.9H28.7045V10.77C28.7045 10.89 28.7345 10.98 28.7945 11.04C28.8612 11.1 28.9545 11.13 29.0745 11.13H29.4945V12H28.8045Z" fill="white"/>
</svg>
